<mxfile host="app.diagrams.net" modified="2022-09-17T00:48:59.559Z" agent="5.0 (Windows NT 10.0; Win64; x64) AppleWebKit/537.36 (KHTML, like Gecko) Chrome/105.0.0.0 Safari/537.36" etag="LXrYrVX50KOhCYmAtIKE" version="20.3.2" type="github">
  <diagram id="R2lEEEUBdFMjLlhIrx00" name="Page-1">
    <mxGraphModel dx="868" dy="482" grid="1" gridSize="10" guides="1" tooltips="1" connect="1" arrows="1" fold="1" page="1" pageScale="1" pageWidth="850" pageHeight="1100" math="0" shadow="0" extFonts="Permanent Marker^https://fonts.googleapis.com/css?family=Permanent+Marker">
      <root>
        <mxCell id="0" />
        <mxCell id="1" parent="0" />
        <mxCell id="FHocMRiqdLAmhIYKL5A0-1" value="Biblioteca" style="swimlane;fontStyle=0;childLayout=stackLayout;horizontal=1;startSize=26;horizontalStack=0;resizeParent=1;resizeParentMax=0;resizeLast=0;collapsible=1;marginBottom=0;align=center;fontSize=14;strokeWidth=2;" vertex="1" parent="1">
          <mxGeometry x="200" y="301" width="160" height="66" as="geometry" />
        </mxCell>
        <mxCell id="FHocMRiqdLAmhIYKL5A0-24" value="&lt;br&gt;Nome" style="text;html=1;align=left;verticalAlign=middle;resizable=0;points=[];autosize=1;strokeColor=none;fillColor=none;" vertex="1" parent="FHocMRiqdLAmhIYKL5A0-1">
          <mxGeometry y="26" width="160" height="40" as="geometry" />
        </mxCell>
        <mxCell id="FHocMRiqdLAmhIYKL5A0-5" value="Loja" style="swimlane;fontStyle=0;childLayout=stackLayout;horizontal=1;startSize=25;horizontalStack=0;resizeParent=1;resizeParentMax=0;resizeLast=0;collapsible=1;marginBottom=0;align=center;fontSize=14;strokeWidth=2;fillStyle=auto;" vertex="1" parent="1">
          <mxGeometry x="190" y="65" width="160" height="55" as="geometry" />
        </mxCell>
        <mxCell id="FHocMRiqdLAmhIYKL5A0-12" value="Categoria" style="text;html=1;align=left;verticalAlign=middle;resizable=0;points=[];autosize=1;strokeColor=none;fillColor=none;" vertex="1" parent="FHocMRiqdLAmhIYKL5A0-5">
          <mxGeometry y="25" width="160" height="30" as="geometry" />
        </mxCell>
        <mxCell id="FHocMRiqdLAmhIYKL5A0-19" value="Jogo" style="swimlane;fontStyle=0;childLayout=stackLayout;horizontal=1;startSize=25;horizontalStack=0;resizeParent=1;resizeParentMax=0;resizeLast=0;collapsible=1;marginBottom=0;align=center;fontSize=14;strokeWidth=2;fillStyle=auto;" vertex="1" parent="1">
          <mxGeometry x="210" y="390" width="160" height="85" as="geometry" />
        </mxCell>
        <mxCell id="FHocMRiqdLAmhIYKL5A0-20" value="Jogos" style="text;html=1;align=left;verticalAlign=middle;resizable=0;points=[];autosize=1;strokeColor=none;fillColor=none;" vertex="1" parent="FHocMRiqdLAmhIYKL5A0-19">
          <mxGeometry y="25" width="160" height="30" as="geometry" />
        </mxCell>
        <mxCell id="FHocMRiqdLAmhIYKL5A0-21" value="Cate" style="text;html=1;align=left;verticalAlign=middle;resizable=0;points=[];autosize=1;strokeColor=none;fillColor=none;" vertex="1" parent="FHocMRiqdLAmhIYKL5A0-19">
          <mxGeometry y="55" width="160" height="30" as="geometry" />
        </mxCell>
        <mxCell id="FHocMRiqdLAmhIYKL5A0-22" value="Cliente" style="swimlane;fontStyle=0;childLayout=stackLayout;horizontal=1;startSize=25;horizontalStack=0;resizeParent=1;resizeParentMax=0;resizeLast=0;collapsible=1;marginBottom=0;align=center;fontSize=14;strokeWidth=2;fillStyle=auto;" vertex="1" parent="1">
          <mxGeometry x="210" y="180" width="160" height="55" as="geometry" />
        </mxCell>
        <mxCell id="FHocMRiqdLAmhIYKL5A0-23" value="IdUsuÃ¡rio" style="text;html=1;align=left;verticalAlign=middle;resizable=0;points=[];autosize=1;strokeColor=none;fillColor=none;" vertex="1" parent="FHocMRiqdLAmhIYKL5A0-22">
          <mxGeometry y="25" width="160" height="30" as="geometry" />
        </mxCell>
        <mxCell id="FHocMRiqdLAmhIYKL5A0-26" value="Amigos" style="swimlane;fontStyle=0;childLayout=stackLayout;horizontal=1;startSize=25;horizontalStack=0;resizeParent=1;resizeParentMax=0;resizeLast=0;collapsible=1;marginBottom=0;align=center;fontSize=14;strokeWidth=2;fillStyle=auto;" vertex="1" parent="1">
          <mxGeometry x="510" y="180" width="160" height="55" as="geometry" />
        </mxCell>
        <mxCell id="FHocMRiqdLAmhIYKL5A0-27" value="Categoria" style="text;html=1;align=left;verticalAlign=middle;resizable=0;points=[];autosize=1;strokeColor=none;fillColor=none;" vertex="1" parent="FHocMRiqdLAmhIYKL5A0-26">
          <mxGeometry y="25" width="160" height="30" as="geometry" />
        </mxCell>
      </root>
    </mxGraphModel>
  </diagram>
</mxfile>
